<!-- Generated by IcoMoon.io -->
<svg version="1.1" xmlns="http://www.w3.org/2000/svg" width="53" height="32" viewBox="0 0 53 32">
<title>ca-flag</title>
<path fill="#fff" d="M3.296 0h46.933c1.178 0 2.133 0.955 2.133 2.133v27.733c0 1.178-0.955 2.133-2.133 2.133h-46.933c-1.178 0-2.133-0.955-2.133-2.133v-27.733c0-1.178 0.955-2.133 2.133-2.133z"></path>
<path fill="#d52b1e" d="M-3.104 0h17.067v32h-17.067zM39.563 0h17.067v32h-17.067zM26.886 21.632l5.291 0.838-0.73-1.777 5.084-4.211-1.385-0.661 1.385-3.305-3.012 0.617-0.787-1.638-3.226 2.859 1.289-5.788-1.999 0.819-2.067-3.343-1.773 3.343-2.018-0.819 1.003 5.79-2.923-2.859-0.608 1.636-2.846-0.617 0.875 3.305-1.229 0.661 4.757 4.211-0.623 1.777 5.291-0.849-0.405 5.129h1.284l-0.627-5.12z"></path>
</svg>
