<?xml version="1.0" encoding="UTF-8"?>
<svg width="16px" height="10px" viewBox="0 0 16 10" version="1.1" xmlns="http://www.w3.org/2000/svg" xmlns:xlink="http://www.w3.org/1999/xlink">
    <!-- Generator: Sketch 57 (83077) - https://sketch.com -->
    <title>Icon / Flag / US</title>
    <desc>Created with Sketch.</desc>
    <defs>
        <rect id="path-1" x="0" y="0" width="16" height="10" rx="1"></rect>
        <linearGradient x1="50%" y1="0%" x2="50%" y2="100%" id="linearGradient-3">
            <stop stop-color="#FFFFFF" offset="0%"></stop>
            <stop stop-color="#F0F0F0" offset="100%"></stop>
        </linearGradient>
    </defs>
    <g id="General" stroke="none" stroke-width="1" fill="none" fill-rule="evenodd">
        <g id="Iconography" transform="translate(-1030.000000, -1376.000000)">
            <g id="Locale" transform="translate(110.000000, 1257.000000)">
                <g id="United-States" transform="translate(919.000000, 0.000000)">
                    <g id="Icon-/-Flag-/-US" transform="translate(1.000000, 119.000000)">
                        <g id="US">
                            <mask id="mask-2" fill="white">
                                <use xlink:href="#path-1"></use>
                            </mask>
                            <use id="Mask" fill="#FFFFFF" xlink:href="#path-1"></use>
                            <path d="M16,8 L16,9 L-8.8817842e-15,9 L-8.8817842e-15,8 L16,8 Z M16,6 L16,7 L-8.8817842e-15,7 L-8.8817842e-15,6 L16,6 Z M16,4 L16,5 L-8.8817842e-15,5 L-8.8817842e-15,4 L16,4 Z M16,2 L16,3 L-8.8817842e-15,3 L-8.8817842e-15,2 L16,2 Z M16,0 L16,1 L-7.10542736e-15,1 L-7.10542736e-15,0 L16,0 Z" id="Rectangle-511" fill="#D02F44" mask="url(#mask-2)"></path>
                            <rect id="Rectangle-511" fill="#46467F" mask="url(#mask-2)" x="0" y="0" width="7" height="5"></rect>
                            <path d="M3.53459491,3.01744975 C3.81056907,3.02708698 4.02647781,3.25862075 4.01684058,3.53459491 C4.00720335,3.81056907 3.77566957,4.02647781 3.49969541,4.01684058 C3.22372126,4.00720335 3.00781252,3.77566957 3.01744975,3.49969541 C3.02708698,3.22372126 3.25862075,3.00781252 3.53459491,3.01744975 Z M5.53459491,3.01744975 C5.81056907,3.02708698 6.02647781,3.25862075 6.01684058,3.53459491 C6.00720335,3.81056907 5.77566957,4.02647781 5.49969541,4.01684058 C5.22372126,4.00720335 5.00781252,3.77566957 5.01744975,3.49969541 C5.02708698,3.22372126 5.25862075,3.00781252 5.53459491,3.01744975 Z M1.51744975,3.00030459 C1.7934239,3.00994182 2.00933264,3.24147559 1.99969541,3.51744975 C1.99005818,3.7934239 1.75852441,4.00933264 1.48255025,3.99969541 C1.2065761,3.99005818 0.990667357,3.75852441 1.00030459,3.48255025 C1.00994182,3.2065761 1.24147559,2.99066736 1.51744975,3.00030459 Z M2.51744975,2.00030459 C2.7934239,2.00994182 3.00933264,2.24147559 2.99969541,2.51744975 C2.99005818,2.7934239 2.75852441,3.00933264 2.48255025,2.99969541 C2.2065761,2.99005818 1.99066736,2.75852441 2.00030459,2.48255025 C2.00994182,2.2065761 2.24147559,1.99066736 2.51744975,2.00030459 Z M4.51744975,2.00030459 C4.7934239,2.00994182 5.00933264,2.24147559 4.99969541,2.51744975 C4.99005818,2.7934239 4.75852441,3.00933264 4.48255025,2.99969541 C4.2065761,2.99005818 3.99066736,2.75852441 4.00030459,2.48255025 C4.00994182,2.2065761 4.24147559,1.99066736 4.51744975,2.00030459 Z M3.53459491,1.01744975 C3.81056907,1.02708698 4.02647781,1.25862075 4.01684058,1.53459491 C4.00720335,1.81056907 3.77566957,2.02647781 3.49969541,2.01684058 C3.22372126,2.00720335 3.00781252,1.77566957 3.01744975,1.49969541 C3.02708698,1.22372126 3.25862075,1.00781252 3.53459491,1.01744975 Z M5.53459491,1.01744975 C5.81056907,1.02708698 6.02647781,1.25862075 6.01684058,1.53459491 C6.00720335,1.81056907 5.77566957,2.02647781 5.49969541,2.01684058 C5.22372126,2.00720335 5.00781252,1.77566957 5.01744975,1.49969541 C5.02708698,1.22372126 5.25862075,1.00781252 5.53459491,1.01744975 Z M1.51744975,1.00030459 C1.7934239,1.00994182 2.00933264,1.24147559 1.99969541,1.51744975 C1.99005818,1.7934239 1.75852441,2.00933264 1.48255025,1.99969541 C1.2065761,1.99005818 0.990667357,1.75852441 1.00030459,1.48255025 C1.00994182,1.2065761 1.24147559,0.990667357 1.51744975,1.00030459 Z" id="Combined-Shape" fill="url(#linearGradient-3)" mask="url(#mask-2)"></path>
                        </g>
                    </g>
                </g>
            </g>
        </g>
    </g>
</svg>