<svg xmlns="http://www.w3.org/2000/svg" xmlns:xlink="http://www.w3.org/1999/xlink" width="25" height="15" viewBox="0 0 25 15">
    <defs>
        <rect id="a" width="24" height="15" rx="1"/>
        <linearGradient id="c" x1="50%" x2="50%" y1="0%" y2="100%">
            <stop offset="0%" stop-color="#FFF"/>
            <stop offset="100%" stop-color="#F0F0F0"/>
        </linearGradient>
    </defs>
    <g fill="none" fill-rule="evenodd" transform="translate(.545)">
        <mask id="b" fill="#fff">
            <use xlink:href="#a"/>
        </mask>
        <use fill="#FFF" xlink:href="#a"/>
        <path fill="#D02F44" d="M0 8h24v1H0zM0 10h24v1H0zM0 12h24v1H0zM0 14h24v1H0zM0 6h24v1H0zM0 4h24v1H0zM0 2h24v1H0zM0 0h24v1H0z" mask="url(#b)"/>
        <path fill="#46467F" d="M0 0h11v7H0z" mask="url(#b)"/>
        <path fill="url(#c)" d="M2.51 1.77a.596.596 0 0 0-.606-.583.596.596 0 0 0-.608.584c0 .322.272.583.608.583a.596.596 0 0 0 .607-.583zm2.43 0a.596.596 0 0 0-.608-.583.596.596 0 0 0-.607.584c0 .322.272.583.607.583a.596.596 0 0 0 .607-.583zm2.428 0a.596.596 0 0 0-.607-.583.596.596 0 0 0-.607.584c0 .322.271.583.607.583a.596.596 0 0 0 .607-.583zm2.428 0a.596.596 0 0 0-.607-.583.596.596 0 0 0-.607.584c0 .322.272.583.607.583a.596.596 0 0 0 .607-.583zM3.725 2.938a.596.596 0 0 0-.607-.583.596.596 0 0 0-.607.583c0 .323.271.584.607.584a.596.596 0 0 0 .607-.583zm2.429 0a.596.596 0 0 0-.608-.583.596.596 0 0 0-.607.583c0 .323.272.584.607.584a.596.596 0 0 0 .608-.583zm2.428 0a.596.596 0 0 0-.607-.583.596.596 0 0 0-.607.583c0 .323.272.584.607.584a.596.596 0 0 0 .607-.583zm1.214 1.167a.596.596 0 0 0-.607-.583.596.596 0 0 0-.607.583c0 .322.272.583.607.583a.596.596 0 0 0 .607-.583zm-2.428 0a.596.596 0 0 0-.607-.583.596.596 0 0 0-.607.583c0 .322.271.583.607.583a.596.596 0 0 0 .607-.583zm-2.429 0a.596.596 0 0 0-.607-.583.596.596 0 0 0-.607.583c0 .322.272.583.607.583a.596.596 0 0 0 .607-.583zm-2.428 0a.596.596 0 0 0-.607-.583.596.596 0 0 0-.608.583c0 .322.272.583.608.583a.596.596 0 0 0 .607-.583zm1.214 1.167a.596.596 0 0 0-.607-.583.596.596 0 0 0-.607.583c0 .322.271.583.607.583a.596.596 0 0 0 .607-.583zm2.429 0a.596.596 0 0 0-.608-.583.596.596 0 0 0-.607.583c0 .322.272.583.607.583a.596.596 0 0 0 .608-.583zm2.428 0a.596.596 0 0 0-.607-.583.596.596 0 0 0-.607.583c0 .322.272.583.607.583a.596.596 0 0 0 .607-.583z" mask="url(#b)"/>
    </g>
</svg>
